<svg width="448" height="448" viewBox="0 0 448 448" fill="none" xmlns="http://www.w3.org/2000/svg">
<path fill-rule="evenodd" clip-rule="evenodd" d="M224 0C347.712 0 448 100.288 448 224C448 347.712 347.712 448 224 448C100.288 448 0 347.712 0 224C0 100.288 100.288 0 224 0ZM224.198 16.2693C109.362 16.2693 16.2693 109.362 16.2693 224.198C16.2693 339.035 109.362 432.128 224.198 432.128C339.035 432.128 432.128 339.035 432.128 224.198C432.128 109.362 339.035 16.2693 224.198 16.2693Z" fill="white"/>
<path d="M385.951 217.056C386.048 219.358 386.097 221.673 386.097 224C386.097 298.904 335.291 361.942 266.26 380.533V355.638C315.916 339.61 353.279 296.225 360.589 243.245H282.133V217.056H385.951Z" fill="white"/>
<path d="M165.47 243.245H87.0145C94.3237 296.225 131.687 339.61 181.343 355.638V380.425C112.514 361.7 61.9026 298.761 61.9026 224C61.9026 221.673 61.9516 219.358 62.0487 217.056H165.47V243.245Z" fill="white"/>
<path d="M181.343 92.7585C141.233 105.706 109.143 136.502 94.4353 175.787H69.194C85.5542 123.2 127.971 82.0943 181.343 67.5741V92.7585Z" fill="white"/>
<path d="M266.26 67.4668C319.819 81.8908 362.406 123.07 378.806 175.787H353.168C338.46 136.502 306.37 105.706 266.26 92.7585V67.4668Z" fill="white"/>
<rect x="211.897" y="61.5059" width="24.2055" height="324.988" fill="#4582C1"/>
</svg>
